<svg xmlns="http://www.w3.org/2000/svg" viewBox="0 0 147.06 124.34"><defs><style>.cls-1{fill:#bbddef;}.cls-2{fill:#eefcff;}.cls-3{fill:#fff;}</style></defs><title>Asset 3</title><g id="Layer_2" data-name="Layer 2"><g id="_6" data-name=" 6"><path id="Forme_8" data-name="Forme 8" class="cls-1" d="M111,15s26.64-4.68,33,5,5.21,37.12-27,36c0,0,13.71,5.33,10,17s-14.56,6.39-20-4c0,0-1.45,16.33-14,16S70.25,82.92,70,98s13.9,15.06,9,23c-5.76,9.34-13.58-2-16-21,0,0-14.19,2.85-26-5s-19.67,8.82-23,16-17-1.14-8-28C16.18,52.56,111,15,111,15Z"></path><path class="cls-2" d="M89,0a88.59,88.59,0,0,1,49.36,14.93c8.3,5.54,6.9,16-1.65,20.6C118,45.56,96.83,35,85,59,76.34,76.53,65.09,86.59,49,87c-9.74.25-29.92-9.67-33,13C13.67,117.11,0,120.22,0,89A89,89,0,0,1,89,0Z"></path><path id="Ellipse_3_copie" data-name="Ellipse 3 copie" class="cls-3" d="M62.69,27.34C69.75,37.39,56.38,40,44,53S24.74,84.32,17.67,74.27,15,45.57,27.39,32.61,55.62,17.29,62.69,27.34Z"></path><path id="Ellipse_2_copie_2" data-name="Ellipse 2 copie 2" class="cls-1" d="M135.79,57.52c1.44-1.88,3.68.49,5.89,3s3.54,4.19,2.1,6.07a4.51,4.51,0,0,1-6.36.45,5.17,5.17,0,0,1-.6-.64C134.61,63.88,134.35,59.4,135.79,57.52Z"></path></g></g></svg>