<svg xmlns="http://www.w3.org/2000/svg" viewBox="0 0 178.01 164.45"><defs><style>.cls-1{fill:#bbddef;}.cls-2{fill:#eefcff;}.cls-3{fill:#fff;}</style></defs><title>Asset 1</title><g id="Layer_2" data-name="Layer 2"><g id="_6" data-name=" 6"><path id="Forme_4" data-name="Forme 4" class="cls-1" d="M47,135s-5.61,23.68,20,16c22-6.61-10.62-17.85,14-29,0,0,11.14-.81,15,1,0,0-11.09,2.32-15,11s19.13,20.69-14,29c-28.76,7.22-44.19-14.58-44-18Z"></path><path id="Forme_5" data-name="Forme 5" class="cls-1" d="M148,122s-.33-8.52-5-8c-6.67.74-13.76,17.69-2,22C151.72,139.93,149.76,125.85,148,122Z"></path><path class="cls-1" d="M93.74,137.49a5.53,5.53,0,1,1-2,7.54,4.16,4.16,0,0,1-.24-.47A5.27,5.27,0,0,1,93.74,137.49Z"></path><path id="Forme_3" data-name="Forme 3" class="cls-1" d="M177,91s3.69,16.47-4,24-18.55.55-13-12,2.4-29.57-20-26c0,0-15.12,1.21-19,25s-18.43,36.24-51,22c0,0-29.24.52-26,30,0,0,3,15.14-11,4s18.46-49.74,55-46S116.7,13.45,177,91Z"></path><path id="Ellipse_1_copie" data-name="Ellipse 1 copie" class="cls-2" d="M89,0a89,89,0,0,1,89,89,90,90,0,0,1-1.45,16c-1.56,8.61-2.38-43.34-43.22-30.77-28.12,8.65-5.91,40-41.33,42.72-17.16,1.34-33.46,1.18-46,11-13.3,10.41-10.56,32.2-13.65,29.65A89,89,0,0,1,89,0Z"></path><path class="cls-3" d="M62.13,27.24c8.9,8.88,7.54,28.06-3,42.84S32.78,89.64,23.89,80.75s-7.54-28.06,3-42.84S53.24,18.35,62.13,27.24Z"></path></g></g></svg>